<?xml version="1.0" encoding="UTF-8" standalone="no"?>
<svg
   width="144"
   height="144"
   viewBox="0 0 144 144"
   version="1.1"
   id="svg13"
   sodipodi:docname="meteor2.svg"
   inkscape:version="1.1 (c4e8f9e, 2021-05-24)"
   xmlns:inkscape="http://www.inkscape.org/namespaces/inkscape"
   xmlns:sodipodi="http://sodipodi.sourceforge.net/DTD/sodipodi-0.dtd"
   xmlns="http://www.w3.org/2000/svg"
   xmlns:svg="http://www.w3.org/2000/svg">
  <defs
     id="defs17" />
  <sodipodi:namedview
     id="namedview15"
     pagecolor="#ffffff"
     bordercolor="#666666"
     borderopacity="1.0"
     inkscape:pageshadow="2"
     inkscape:pageopacity="0.0"
     inkscape:pagecheckerboard="0"
     showgrid="false"
     inkscape:zoom="3.28"
     inkscape:cx="82.77439"
     inkscape:cy="9.7560976"
     inkscape:window-width="1736"
     inkscape:window-height="1194"
     inkscape:window-x="365"
     inkscape:window-y="72"
     inkscape:window-maximized="0"
     inkscape:current-layer="svg13"
     fit-margin-top="0"
     fit-margin-left="0"
     fit-margin-right="0"
     fit-margin-bottom="0" />
  <path
     d="m 53.98669,144.01229 c 14.423814,0 27.990698,-5.61686 38.259474,-15.89284 L 141.9626,77.020398 a 7.2011057,7.2011057 0 0 0 -5.16319,-12.220279 h -23.77085 l 30.06461,-54.109108 a 7.2083068,7.2083068 0 0 0 -9.7863,-9.79350325 L 82.107007,29.341875 86.254844,8.6098917 A 7.2011057,7.2011057 0 0 0 74.524243,1.7184337 L 15.792025,51.816526 c -21.0560334,21.056035 -21.0560334,55.318904 0,76.374934 A 53.662639,53.662639 0 0 0 53.98669,144.01229 Z M 25.556725,62.387749 68.05765,26.158986 66.271776,35.088357 64.93237,41.785386 v 0.0072 L 61.879102,57.05173 118.26376,25.72692 94.50011,68.501488 l -0.0072,0.0072 -5.933711,10.693644 H 119.74719 L 81.99179,118.0091 c -7.481949,7.48195 -17.426676,11.60098 -28.0051,11.60098 -10.578424,0 -20.530352,-4.11903 -28.012301,-11.60098 -15.43197,-15.43917 -15.43197,-40.571038 -0.417664,-55.621351 z"
     id="path9"
     style="stroke-width:7.20111" />
  <path
     d="M 53.98669,115.20787 A 25.146261,25.146261 0 0 0 64.673131,67.255696 c 0.03601,0.381659 0.115217,0.756116 0.115217,1.144976 a 10.801659,10.801659 0 1 1 -21.603317,0 c 0,-0.38886 0.07921,-0.763317 0.115218,-1.144976 A 25.146261,25.146261 0 0 0 53.98669,115.20787 Z"
     id="path11"
     style="stroke-width:7.20111" />
</svg>
